# xmcd
#
# Track frame offsets: 
#        150
#        13679
#        30642
#        41165
#        54699
#        68074
#        76584
#        91156
#        99544
#        115379
#        129127
#        142277
#        150477
#        162085
#
# Disc length: 2388 seconds
#
# Revision: 0
# Processed by: cddbd v1.5.2PL0 Copyright (c) Steve Scherf et al.
# Submitted via: ExactAudioCopy v0.95b4
#
DISCID=ad09520e
DTITLE=Sean Tracey - Trouble
DYEAR=2007
DGENRE=Crabgrass
TTITLE0=Beer
TTITLE1=Bank Robbers
TTITLE2=Gangway Blues
TTITLE3=Trouble, Too
TTITLE4=Sunday Mornin'
TTITLE5=Thinkin' About Drinkin'
TTITLE6=Everything Was Cool
TTITLE7=BoBo In the Woodpile
TTITLE8=Smokin' Drinkin' Cheatin' Dyin'
TTITLE9=Old Black Crow
TTITLE10=Ocean's a Desert
TTITLE11=Kerry Kirkpatrick
TTITLE12=Weed
TTITLE13=Drink Up and Go Home
EXTD=
EXTT0=
EXTT1=
EXTT2=
EXTT3=
EXTT4=
EXTT5=
EXTT6=
EXTT7=
EXTT8=
EXTT9=
EXTT10=
EXTT11=
EXTT12=
EXTT13=
PLAYORDER=
